# Blender v3.2.1 OBJ File: 'doors.blend'
# www.blender.org
mtllib door_roll.mtl
o Cube.001_Cube.002
v 0.000000 4.000000 -2.000000
v 0.000000 4.000000 2.000000
v 0.000000 3.000000 -2.000000
v 0.000000 3.000000 2.000000
v 1.000000 4.000000 2.000000
v 1.000000 4.000000 -2.000000
vt 0.497244 0.609951
vt 0.497244 0.749424
vt 0.694162 0.749424
vt 0.694162 0.609951
vt 0.252655 0.504608
vt 0.252655 0.745392
vt 0.493439 0.745392
vt 0.493439 0.504608
vt 0.458154 0.534034
vt 0.284034 0.534034
vt 0.458154 0.708154
vt 0.458154 0.534034
vt 0.284034 0.534034
vt 0.458154 0.708154
vn 0.7071 -0.7071 0.0000
vn 0.0000 1.0000 0.0000
vn -1.0000 0.0000 0.0000
vn 0.0000 0.0000 1.0000
vn 0.0000 0.0000 -1.0000
usemtl Material
s off
f 4/1/1 3/2/1 6/3/1 5/4/1
f 2/5/2 5/6/2 6/7/2 1/8/2
f 4/1/3 2/5/3 1/9/3 3/2/3
f 5/10/4 2/11/4 4/12/4
f 6/13/5 3/14/5 1/9/5
